name rise49.25peak52.1432fall72.8391.mot
datacolumns 19
datarows 21
range 15.96160100000000 15.99493600000000
endheader
time	ground_force1_vx	ground_force1_vy	ground_force1_vz	ground_force1_px	ground_force1_py	ground_force1_pz	ground_force2_vx	ground_force2_vy	ground_force2_vz	ground_force2_px	ground_force2_py	ground_force2_pz	ground_torque1_x	ground_torque1_y	ground_torque1_z	ground_torque2_x	ground_torque2_y	ground_torque2_z	
15.96160100000000	19.46048800000000	716.02666599999998	32.33689300000000	0.22967000000000	0.00000000000000	0.08390600000000	0.00000000000000	0.00000000000000	0.00000000000000	0.00000000000000	0.00000000000000	0.00000000000000	0.00000000000000	12.97810900000000	0.00000000000000	0.00000000000000	0.00000000000000	0.00000000000000	
15.96326800000000	19.03655800000000	717.04443300000003	32.33268600000000	0.22878700000000	0.00000000000000	0.08386200000000	0.00000000000000	0.00000000000000	0.00000000000000	0.00000000000000	0.00000000000000	0.00000000000000	0.00000000000000	13.03817500000000	0.00000000000000	0.00000000000000	0.00000000000000	0.00000000000000	
15.96494100000000	18.59752000000000	718.07235600000001	32.33049500000000	0.22786900000000	0.00000000000000	0.08382100000000	0.00000000000000	0.00000000000000	0.00000000000000	0.00000000000000	0.00000000000000	0.00000000000000	0.00000000000000	13.10033400000000	0.00000000000000	0.00000000000000	0.00000000000000	0.00000000000000	
15.96660400000000	18.14349100000000	719.10908800000004	32.33020200000000	0.22692000000000	0.00000000000000	0.08378200000000	0.00000000000000	0.00000000000000	0.00000000000000	0.00000000000000	0.00000000000000	0.00000000000000	0.00000000000000	13.16448200000000	0.00000000000000	0.00000000000000	0.00000000000000	0.00000000000000	
15.96826800000000	17.67463200000000	720.15337000000000	32.33170200000000	0.22593800000000	0.00000000000000	0.08374700000000	0.00000000000000	0.00000000000000	0.00000000000000	0.00000000000000	0.00000000000000	0.00000000000000	0.00000000000000	13.23051700000000	0.00000000000000	0.00000000000000	0.00000000000000	0.00000000000000	
15.96994200000000	17.19114800000000	721.20402400000000	32.33490700000000	0.22492500000000	0.00000000000000	0.08371500000000	0.00000000000000	0.00000000000000	0.00000000000000	0.00000000000000	0.00000000000000	0.00000000000000	0.00000000000000	13.29834400000000	0.00000000000000	0.00000000000000	0.00000000000000	0.00000000000000	
15.97160800000000	16.69328300000000	722.25995999999998	32.33974200000000	0.22388200000000	0.00000000000000	0.08368500000000	0.00000000000000	0.00000000000000	0.00000000000000	0.00000000000000	0.00000000000000	0.00000000000000	0.00000000000000	13.36787500000000	0.00000000000000	0.00000000000000	0.00000000000000	0.00000000000000	
15.97327300000000	16.18132400000000	723.32017399999995	32.34614900000000	0.22281100000000	0.00000000000000	0.08365900000000	0.00000000000000	0.00000000000000	0.00000000000000	0.00000000000000	0.00000000000000	0.00000000000000	0.00000000000000	13.43902800000000	0.00000000000000	0.00000000000000	0.00000000000000	0.00000000000000	
15.97494000000000	15.65559400000000	724.38374599999997	32.35408300000000	0.22171300000000	0.00000000000000	0.08363500000000	0.00000000000000	0.00000000000000	0.00000000000000	0.00000000000000	0.00000000000000	0.00000000000000	0.00000000000000	13.51172400000000	0.00000000000000	0.00000000000000	0.00000000000000	0.00000000000000	
15.97660200000000	15.11645300000000	725.44984599999998	32.36351800000000	0.22059000000000	0.00000000000000	0.08361500000000	0.00000000000000	0.00000000000000	0.00000000000000	0.00000000000000	0.00000000000000	0.00000000000000	0.00000000000000	13.58589400000000	0.00000000000000	0.00000000000000	0.00000000000000	0.00000000000000	
15.97827500000000	14.56429300000000	726.51772600000004	32.37444000000000	0.21944300000000	0.00000000000000	0.08359700000000	0.00000000000000	0.00000000000000	0.00000000000000	0.00000000000000	0.00000000000000	0.00000000000000	0.00000000000000	13.66146900000000	0.00000000000000	0.00000000000000	0.00000000000000	0.00000000000000	
15.97993600000000	13.99954200000000	727.58672500000000	32.38685300000000	0.21827300000000	0.00000000000000	0.08358300000000	0.00000000000000	0.00000000000000	0.00000000000000	0.00000000000000	0.00000000000000	0.00000000000000	0.00000000000000	13.73839100000000	0.00000000000000	0.00000000000000	0.00000000000000	0.00000000000000	
15.98160800000000	13.42265300000000	728.65626599999996	32.40077800000000	0.21708400000000	0.00000000000000	0.08357200000000	0.00000000000000	0.00000000000000	0.00000000000000	0.00000000000000	0.00000000000000	0.00000000000000	0.00000000000000	13.81660200000000	0.00000000000000	0.00000000000000	0.00000000000000	0.00000000000000	
15.98327400000000	12.83410900000000	729.72585200000003	32.41624800000000	0.21587700000000	0.00000000000000	0.08356300000000	0.00000000000000	0.00000000000000	0.00000000000000	0.00000000000000	0.00000000000000	0.00000000000000	0.00000000000000	13.89605000000000	0.00000000000000	0.00000000000000	0.00000000000000	0.00000000000000	
15.98494000000000	12.23441600000000	730.79507000000001	32.43331600000000	0.21465500000000	0.00000000000000	0.08355800000000	0.00000000000000	0.00000000000000	0.00000000000000	0.00000000000000	0.00000000000000	0.00000000000000	0.00000000000000	13.97669000000000	0.00000000000000	0.00000000000000	0.00000000000000	0.00000000000000	
15.98660100000000	11.62410500000000	731.86358099999995	32.45204800000000	0.21341800000000	0.00000000000000	0.08355500000000	0.00000000000000	0.00000000000000	0.00000000000000	0.00000000000000	0.00000000000000	0.00000000000000	0.00000000000000	14.05847600000000	0.00000000000000	0.00000000000000	0.00000000000000	0.00000000000000	
15.98827300000000	11.00372400000000	732.93112799999994	32.47252700000000	0.21217000000000	0.00000000000000	0.08355600000000	0.00000000000000	0.00000000000000	0.00000000000000	0.00000000000000	0.00000000000000	0.00000000000000	0.00000000000000	14.14137000000000	0.00000000000000	0.00000000000000	0.00000000000000	0.00000000000000	
15.98994000000000	10.37384000000000	733.99752400000000	32.49484900000000	0.21091200000000	0.00000000000000	0.08355900000000	0.00000000000000	0.00000000000000	0.00000000000000	0.00000000000000	0.00000000000000	0.00000000000000	0.00000000000000	14.22533500000000	0.00000000000000	0.00000000000000	0.00000000000000	0.00000000000000	
15.99160200000000	9.73503400000000	735.06265499999995	32.51912800000000	0.20964700000000	0.00000000000000	0.08356600000000	0.00000000000000	0.00000000000000	0.00000000000000	0.00000000000000	0.00000000000000	0.00000000000000	0.00000000000000	14.31033600000000	0.00000000000000	0.00000000000000	0.00000000000000	0.00000000000000	
15.99327500000000	9.08790000000000	736.12647500000003	32.54549000000000	0.20837700000000	0.00000000000000	0.08357500000000	0.00000000000000	0.00000000000000	0.00000000000000	0.00000000000000	0.00000000000000	0.00000000000000	0.00000000000000	14.39634200000000	0.00000000000000	0.00000000000000	0.00000000000000	0.00000000000000	
15.99493600000000	8.43304300000000	737.18900299999996	32.57407600000000	0.20710300000000	0.00000000000000	0.08358700000000	0.00000000000000	0.00000000000000	0.00000000000000	0.00000000000000	0.00000000000000	0.00000000000000	0.00000000000000	14.48332500000000	0.00000000000000	0.00000000000000	0.00000000000000	0.00000000000000	
